<?xml version="1.0" encoding="UTF-8" standalone="no"?>
<!-- Created with Inkscape (http://www.inkscape.org/) -->

<svg
   xmlns:dc="http://purl.org/dc/elements/1.1/"
   xmlns:cc="http://creativecommons.org/ns#"
   xmlns:rdf="http://www.w3.org/1999/02/22-rdf-syntax-ns#"
   xmlns:svg="http://www.w3.org/2000/svg"
   xmlns="http://www.w3.org/2000/svg"
   xmlns:sodipodi="http://sodipodi.sourceforge.net/DTD/sodipodi-0.dtd"
   xmlns:inkscape="http://www.inkscape.org/namespaces/inkscape"
   version="1.1"
   id="svg815"
   xml:space="preserve"
   width="666.66669"
   height="666.66669"
   viewBox="0 0 666.66669 666.66669"
   sodipodi:docname="big-sale-publicdomainvectors.org.svg"
   inkscape:version="0.92.4 (5da689c313, 2019-01-14)"><metadata
     id="metadata821"><rdf:RDF><cc:Work
         rdf:about=""><dc:format>image/svg+xml</dc:format><dc:type
           rdf:resource="http://purl.org/dc/dcmitype/StillImage" /><dc:title></dc:title></cc:Work></rdf:RDF></metadata><defs
     id="defs819"><clipPath
       clipPathUnits="userSpaceOnUse"
       id="clipPath831"><path
         d="M 0,500 H 500 V 0 H 0 Z"
         id="path829"
         inkscape:connector-curvature="0" /></clipPath><radialGradient
       fx="0"
       fy="0"
       cx="0"
       cy="0"
       r="1"
       gradientUnits="userSpaceOnUse"
       gradientTransform="matrix(289.00708,0,0,-289.00708,248,297)"
       spreadMethod="pad"
       id="radialGradient849"><stop
         style="stop-opacity:1;stop-color:#595959"
         offset="0"
         id="stop845" /><stop
         style="stop-opacity:1;stop-color:#231f20"
         offset="1"
         id="stop847" /></radialGradient></defs><sodipodi:namedview
     pagecolor="#ffffff"
     bordercolor="#666666"
     borderopacity="1"
     objecttolerance="10"
     gridtolerance="10"
     guidetolerance="10"
     inkscape:pageopacity="0"
     inkscape:pageshadow="2"
     inkscape:window-width="1920"
     inkscape:window-height="1018"
     id="namedview817"
     showgrid="false"
     inkscape:zoom="1.2735"
     inkscape:cx="333.33334"
     inkscape:cy="333.33334"
     inkscape:window-x="-8"
     inkscape:window-y="-8"
     inkscape:window-maximized="1"
     inkscape:current-layer="g823" /><g
     id="g823"
     inkscape:groupmode="layer"
     inkscape:label="big-sale-publicdomainvectors.org"
     transform="matrix(1.3333333,0,0,-1.3333333,0,666.66667)"><g
       id="g825"><g
         id="g827"
         clip-path="url(#clipPath831)"><g
           id="g833"><g
             id="g835"><g
               id="g841"><g
                 id="g843"><path
                   d="M 500,0 H 0 v 500 h 500 z"
                   style="fill:url(#radialGradient849);stroke:none"
                   id="path851"
                   inkscape:connector-curvature="0" /></g></g></g></g><path
           d="M 500,500 H 0 l 500,-71"
           style="fill:#1a1a1a;fill-opacity:1;fill-rule:nonzero;stroke:none"
           id="path853"
           inkscape:connector-curvature="0" /><path
           d="m 0,500 500,-56 v 56 z"
           style="fill:#ff0000;fill-opacity:1;fill-rule:nonzero;stroke:none"
           id="path855"
           inkscape:connector-curvature="0" /><path
           d="M 0,0 H 500 L 0,63"
           style="fill:#000000;fill-opacity:1;fill-rule:nonzero;stroke:none"
           id="path857"
           inkscape:connector-curvature="0" /><path
           d="M 500,0 0,56 V 0 Z"
           style="fill:#ff0000;fill-opacity:1;fill-rule:nonzero;stroke:none"
           id="path859"
           inkscape:connector-curvature="0" /><path
           d="m 500,429 v 71"
           style="fill:#000000;fill-opacity:1;fill-rule:nonzero;stroke:none"
           id="path861"
           inkscape:connector-curvature="0" /><path
           d="m 326.03,160.324 v 0 L 452,152.35 469,403 36,365 73,184 236.627,168.689 140.346,177.698 V 142 L 271.155,120.965 235,53 371,96.982 343,141 452,152.35 Z"
           style="fill:#1a1a1a;fill-opacity:1;fill-rule:nonzero;stroke:none"
           id="path863"
           inkscape:connector-curvature="0" /><path
           d="M 31,375 68,194 410,162 469,403 Z"
           style="fill:#ff0000;fill-opacity:1;fill-rule:nonzero;stroke:none"
           id="path865"
           inkscape:connector-curvature="0" /><path
           d="M 135.346,187.698 V 152 L 353,117 321.03,170.324 Z"
           style="fill:#ff0000;fill-opacity:1;fill-rule:nonzero;stroke:none"
           id="path867"
           inkscape:connector-curvature="0" /><path
           d="M 135.346,152 410,162 135.346,187.698 Z"
           style="fill:#a80000;fill-opacity:1;fill-rule:nonzero;stroke:none"
           id="path869"
           inkscape:connector-curvature="0" /><path
           d="M 353,117 230,63 266.155,130.965 Z"
           style="fill:#a80000;fill-opacity:1;fill-rule:nonzero;stroke:none"
           id="path871"
           inkscape:connector-curvature="0" /><path
           d="m 166.078,309.059 h 11.764 c 3.971,0 6.772,0.704 8.402,2.113 1.63,1.408 2.444,3.301 2.444,5.678 0,2.207 -0.806,3.98 -2.418,5.321 -1.613,1.341 -4.439,2.012 -8.479,2.012 h -11.713 z m 0,29.332 h 10.032 c 3.598,0 6.102,0.619 7.512,1.859 1.408,1.238 2.113,3.029 2.113,5.372 0,2.172 -0.705,3.87 -2.113,5.092 -1.41,1.223 -3.863,1.834 -7.359,1.834 h -10.185 z m -23.272,29.281 h 43.183 c 7.198,0 12.723,-1.782 16.576,-5.347 3.853,-3.564 5.78,-7.978 5.78,-13.24 0,-4.414 -1.375,-8.199 -4.125,-11.356 -1.833,-2.105 -4.515,-3.769 -8.046,-4.991 5.364,-1.29 9.311,-3.506 11.84,-6.645 2.529,-3.141 3.794,-7.088 3.794,-11.84 0,-3.871 -0.9,-7.351 -2.699,-10.44 -1.799,-3.089 -4.261,-5.534 -7.384,-7.333 -1.935,-1.12 -4.855,-1.935 -8.759,-2.444 -5.194,-0.68 -8.64,-1.019 -10.338,-1.019 h -39.822 z"
           style="fill:#ffffff;fill-opacity:1;fill-rule:nonzero;stroke:none"
           id="path873"
           inkscape:connector-curvature="0" /><path
           d="m 224.794,367.672 h 23.119 v -74.655 h -23.119 z"
           style="fill:#ffffff;fill-opacity:1;fill-rule:nonzero;stroke:none"
           id="path875"
           inkscape:connector-curvature="0" /><path
           d="m 301.994,320.058 v 15.532 h 35.648 v -31.828 c -6.825,-4.651 -12.858,-7.817 -18.104,-9.497 -5.244,-1.681 -11.468,-2.521 -18.664,-2.521 -8.86,0 -16.083,1.51 -21.668,4.532 -5.585,3.022 -9.914,7.52 -12.985,13.495 -3.074,5.975 -4.609,12.833 -4.609,20.574 0,8.148 1.681,15.234 5.041,21.26 3.361,6.026 8.284,10.601 14.768,13.725 5.058,2.41 11.865,3.615 20.422,3.615 8.25,0 14.419,-0.747 18.511,-2.24 4.09,-1.495 7.486,-3.811 10.184,-6.952 2.7,-3.14 4.726,-7.121 6.085,-11.941 L 314.37,343.84 c -0.917,2.817 -2.471,4.973 -4.659,6.467 -2.19,1.494 -4.984,2.241 -8.378,2.241 -5.06,0 -9.09,-1.757 -12.095,-5.271 -3.005,-3.514 -4.507,-9.073 -4.507,-16.677 0,-8.081 1.519,-13.852 4.558,-17.315 3.038,-3.463 7.274,-5.194 12.705,-5.194 2.581,0 5.043,0.373 7.385,1.12 2.343,0.747 5.023,2.02 8.047,3.819 v 7.028 z"
           style="fill:#ffffff;fill-opacity:1;fill-rule:nonzero;stroke:none"
           id="path877"
           inkscape:connector-curvature="0" /><path
           d="m 137.447,241.619 15.403,0.966 c 0.333,-2.502 1.012,-4.407 2.036,-5.718 1.668,-2.121 4.051,-3.18 7.148,-3.18 2.31,0 4.091,0.541 5.342,1.626 1.25,1.083 1.876,2.34 1.876,3.77 0,1.357 -0.596,2.572 -1.787,3.645 -1.191,1.072 -3.954,2.085 -8.29,3.037 -7.1,1.596 -12.163,3.717 -15.188,6.361 -3.05,2.645 -4.574,6.016 -4.574,10.113 0,2.693 0.779,5.236 2.34,7.63 1.56,2.395 3.908,4.276 7.04,5.647 3.133,1.369 7.427,2.054 12.883,2.054 6.695,0 11.799,-1.245 15.313,-3.735 3.514,-2.489 5.604,-6.449 6.272,-11.881 l -15.26,-0.894 c -0.405,2.359 -1.256,4.074 -2.555,5.146 -1.299,1.072 -3.091,1.608 -5.378,1.608 -1.882,0 -3.3,-0.398 -4.253,-1.197 -0.952,-0.798 -1.429,-1.769 -1.429,-2.912 0,-0.834 0.393,-1.585 1.179,-2.251 0.763,-0.692 2.574,-1.335 5.432,-1.93 7.076,-1.525 12.144,-3.068 15.206,-4.628 3.061,-1.561 5.289,-3.497 6.683,-5.808 1.393,-2.311 2.09,-4.896 2.09,-7.754 0,-3.359 -0.929,-6.456 -2.787,-9.291 -1.858,-2.836 -4.456,-4.985 -7.791,-6.45 -3.335,-1.465 -7.54,-2.198 -12.615,-2.198 -8.91,0 -15.08,1.715 -18.511,5.146 -3.431,3.43 -5.373,7.79 -5.825,13.078"
           style="fill:#ffffff;fill-opacity:1;fill-rule:nonzero;stroke:none"
           id="path879"
           inkscape:connector-curvature="0" /><path
           d="m 221.974,244.265 -5.783,18.832 -5.722,-18.832 z m 3.358,-11.328 h -18.379 l -2.554,-8.649 h -16.528 l 19.69,52.389 h 17.658 l 19.686,-52.389 h -16.952 z"
           style="fill:#ffffff;fill-opacity:1;fill-rule:nonzero;stroke:none"
           id="path881"
           inkscape:connector-curvature="0" /><path
           d="m 250.051,276.677 h 16.189 v -39.488 h 25.265 v -12.901 h -41.454 z"
           style="fill:#ffffff;fill-opacity:1;fill-rule:nonzero;stroke:none"
           id="path883"
           inkscape:connector-curvature="0" /><path
           d="m 298.83,276.677 h 43.385 v -11.185 h -27.16 v -8.327 h 25.194 V 246.48 H 315.055 V 236.152 H 343 v -11.864 h -44.17 z"
           style="fill:#ffffff;fill-opacity:1;fill-rule:nonzero;stroke:none"
           id="path885"
           inkscape:connector-curvature="0" /><path
           d="m 173.973,199.525 3.074,0.193 c 0.067,-0.499 0.203,-0.88 0.407,-1.141 0.333,-0.424 0.809,-0.636 1.427,-0.636 0.461,0 0.817,0.109 1.066,0.326 0.25,0.215 0.375,0.466 0.375,0.753 0,0.27 -0.119,0.513 -0.357,0.727 -0.237,0.214 -0.789,0.416 -1.655,0.607 -1.417,0.318 -2.428,0.742 -3.032,1.269 -0.609,0.528 -0.913,1.201 -0.913,2.02 0,0.537 0.156,1.045 0.467,1.522 0.312,0.479 0.78,0.855 1.406,1.128 0.625,0.273 1.482,0.41 2.572,0.41 1.336,0 2.355,-0.249 3.057,-0.746 0.701,-0.497 1.118,-1.287 1.252,-2.372 l -3.047,-0.179 c -0.08,0.472 -0.251,0.814 -0.509,1.028 -0.26,0.214 -0.618,0.321 -1.075,0.321 -0.375,0 -0.658,-0.079 -0.848,-0.239 -0.191,-0.16 -0.286,-0.353 -0.286,-0.581 0,-0.166 0.079,-0.317 0.236,-0.45 0.152,-0.137 0.514,-0.266 1.084,-0.385 1.412,-0.304 2.425,-0.613 3.035,-0.924 0.612,-0.312 1.057,-0.698 1.335,-1.159 0.278,-0.461 0.417,-0.978 0.417,-1.548 0,-0.671 -0.185,-1.289 -0.556,-1.856 -0.371,-0.565 -0.89,-0.995 -1.555,-1.287 -0.666,-0.293 -1.506,-0.439 -2.519,-0.439 -1.779,0 -3.011,0.342 -3.696,1.027 -0.684,0.686 -1.072,1.556 -1.162,2.611"
           style="fill:#ffffff;fill-opacity:1;fill-rule:nonzero;stroke:none"
           id="path887"
           inkscape:connector-curvature="0" /><path
           d="m 188.32,202.065 h 0.792 c 0.623,0 1.06,0.109 1.312,0.325 0.252,0.216 0.379,0.494 0.379,0.832 0,0.328 -0.11,0.605 -0.329,0.834 -0.219,0.228 -0.63,0.342 -1.234,0.342 h -0.92 z m -3.246,4.459 h 5.372 c 1.17,0 2.046,-0.278 2.629,-0.835 0.582,-0.556 0.874,-1.347 0.874,-2.375 0,-1.056 -0.318,-1.881 -0.953,-2.476 -0.635,-0.594 -1.604,-0.892 -2.907,-0.892 h -1.769 v -3.881 h -3.246 z"
           style="fill:#ffffff;fill-opacity:1;fill-rule:nonzero;stroke:none"
           id="path889"
           inkscape:connector-curvature="0" /><path
           d="m 195.632,206.524 h 8.661 v -2.233 h -5.421 v -1.662 h 5.029 v -2.133 h -5.029 v -2.062 h 5.579 v -2.369 h -8.819 z"
           style="fill:#ffffff;fill-opacity:1;fill-rule:nonzero;stroke:none"
           id="path891"
           inkscape:connector-curvature="0" /><path
           d="m 213.154,200.346 2.833,-0.856 c -0.191,-0.795 -0.49,-1.458 -0.899,-1.991 -0.409,-0.532 -0.917,-0.935 -1.524,-1.205 -0.606,-0.272 -1.377,-0.407 -2.314,-0.407 -1.137,0 -2.066,0.166 -2.787,0.496 -0.72,0.329 -1.342,0.911 -1.865,1.743 -0.523,0.831 -0.785,1.896 -0.785,3.194 0,1.73 0.46,3.059 1.381,3.99 0.92,0.928 2.222,1.393 3.906,1.393 1.317,0 2.353,-0.266 3.107,-0.8 0.754,-0.532 1.314,-1.35 1.68,-2.454 l -2.854,-0.635 c -0.1,0.319 -0.204,0.552 -0.314,0.7 -0.18,0.247 -0.402,0.437 -0.663,0.571 -0.262,0.133 -0.555,0.199 -0.878,0.199 -0.732,0 -1.293,-0.295 -1.683,-0.884 -0.295,-0.437 -0.443,-1.123 -0.443,-2.058 0,-1.16 0.176,-1.954 0.528,-2.385 0.352,-0.429 0.847,-0.644 1.484,-0.644 0.619,0 1.086,0.173 1.402,0.521 0.316,0.347 0.546,0.851 0.688,1.512"
           style="fill:#ffffff;fill-opacity:1;fill-rule:nonzero;stroke:none"
           id="path893"
           inkscape:connector-curvature="0" /><path
           d="m 217.685,206.524 h 3.239 v -10.459 h -3.239 z"
           style="fill:#ffffff;fill-opacity:1;fill-rule:nonzero;stroke:none"
           id="path895"
           inkscape:connector-curvature="0" /><path
           d="m 229.002,200.054 -1.154,3.759 -1.143,-3.759 z m 0.671,-2.262 h -3.67 l -0.51,-1.727 h -3.299 l 3.931,10.459 h 3.525 l 3.93,-10.459 h -3.384 z"
           style="fill:#ffffff;fill-opacity:1;fill-rule:nonzero;stroke:none"
           id="path897"
           inkscape:connector-curvature="0" /><path
           d="m 234.607,206.524 h 3.232 v -7.883 h 5.044 v -2.576 h -8.276 z"
           style="fill:#ffffff;fill-opacity:1;fill-rule:nonzero;stroke:none"
           id="path899"
           inkscape:connector-curvature="0" /><path
           d="m 252.051,201.273 c 0,-1.055 0.196,-1.814 0.589,-2.275 0.392,-0.462 0.926,-0.692 1.602,-0.692 0.695,0 1.232,0.225 1.612,0.677 0.38,0.453 0.571,1.263 0.571,2.433 0,0.984 -0.198,1.704 -0.596,2.158 -0.396,0.454 -0.935,0.682 -1.616,0.682 -0.651,0 -1.175,-0.231 -1.569,-0.693 -0.396,-0.46 -0.593,-1.224 -0.593,-2.29 m -3.232,0.015 c 0,1.707 0.476,3.036 1.427,3.988 0.951,0.952 2.276,1.427 3.975,1.427 1.74,0 3.082,-0.468 4.023,-1.402 0.943,-0.935 1.413,-2.244 1.413,-3.928 0,-1.222 -0.206,-2.225 -0.617,-3.007 -0.412,-0.782 -1.006,-1.391 -1.784,-1.826 -0.777,-0.436 -1.746,-0.653 -2.907,-0.653 -1.18,0 -2.157,0.188 -2.929,0.564 -0.773,0.375 -1.4,0.97 -1.88,1.783 -0.48,0.814 -0.721,1.831 -0.721,3.054"
           style="fill:#ffffff;fill-opacity:1;fill-rule:nonzero;stroke:none"
           id="path901"
           inkscape:connector-curvature="0" /><path
           d="m 261.412,206.524 h 7.99 v -2.247 h -4.744 v -1.826 h 4.053 v -2.112 h -4.053 v -4.274 h -3.246 z"
           style="fill:#ffffff;fill-opacity:1;fill-rule:nonzero;stroke:none"
           id="path903"
           inkscape:connector-curvature="0" /><path
           d="m 271.157,206.524 h 7.991 v -2.247 h -4.745 v -1.826 h 4.053 v -2.112 h -4.053 v -4.274 h -3.246 z"
           style="fill:#ffffff;fill-opacity:1;fill-rule:nonzero;stroke:none"
           id="path905"
           inkscape:connector-curvature="0" /><path
           d="m 280.882,206.524 h 8.661 v -2.233 h -5.422 v -1.662 h 5.029 v -2.133 h -5.029 v -2.062 h 5.579 v -2.369 h -8.818 z"
           style="fill:#ffffff;fill-opacity:1;fill-rule:nonzero;stroke:none"
           id="path907"
           inkscape:connector-curvature="0" /><path
           d="m 294.729,202.287 h 1.363 c 0.147,0 0.433,0.047 0.856,0.143 0.214,0.042 0.389,0.151 0.525,0.328 0.135,0.176 0.203,0.378 0.203,0.606 0,0.337 -0.107,0.597 -0.321,0.778 -0.214,0.18 -0.616,0.27 -1.206,0.27 h -1.42 z m -3.246,-6.222 v 10.459 h 5.387 c 0.999,0 1.762,-0.086 2.29,-0.256 0.528,-0.171 0.953,-0.489 1.278,-0.953 0.323,-0.463 0.484,-1.028 0.484,-1.694 0,-0.581 -0.123,-1.081 -0.371,-1.502 -0.247,-0.421 -0.588,-0.763 -1.022,-1.023 -0.275,-0.167 -0.653,-0.305 -1.133,-0.414 0.383,-0.129 0.665,-0.257 0.84,-0.386 0.119,-0.085 0.291,-0.269 0.517,-0.55 0.226,-0.281 0.377,-0.498 0.453,-0.649 l 1.565,-3.032 h -3.652 l -1.727,3.197 c -0.219,0.414 -0.413,0.682 -0.585,0.805 -0.233,0.162 -0.497,0.244 -0.792,0.244 h -0.286 v -4.246 z"
           style="fill:#ffffff;fill-opacity:1;fill-rule:nonzero;stroke:none"
           id="path909"
           inkscape:connector-curvature="0" /><path
           d="M 462,89.5 C 462,70.446 446.554,55 427.5,55 408.446,55 393,70.446 393,89.5 c 0,19.054 15.446,34.5 34.5,34.5 19.054,0 34.5,-15.446 34.5,-34.5"
           style="fill:#000000;fill-opacity:1;fill-rule:nonzero;stroke:none"
           id="path911"
           inkscape:connector-curvature="0" /><path
           d="M 455,97.5 C 455,78.446 439.554,63 420.5,63 401.446,63 386,78.446 386,97.5 c 0,19.054 15.446,34.5 34.5,34.5 19.054,0 34.5,-15.446 34.5,-34.5"
           style="fill:#fbb03b;fill-opacity:1;fill-rule:nonzero;stroke:none"
           id="path913"
           inkscape:connector-curvature="0" /><path
           d="m 393.711,109.982 h 2.654 v -6.474 h 4.143 v -2.115 h -6.797 z"
           style="fill:#ffffff;fill-opacity:1;fill-rule:nonzero;stroke:none"
           id="path915"
           inkscape:connector-curvature="0" /><path
           d="m 401.82,109.982 h 2.66 v -8.59 h -2.66 z"
           style="fill:#ffffff;fill-opacity:1;fill-rule:nonzero;stroke:none"
           id="path917"
           inkscape:connector-curvature="0" /><path
           d="m 406.355,109.982 h 3.491 l 1.346,-5.226 1.337,5.226 h 3.489 v -8.589 h -2.174 v 6.55 l -1.675,-6.55 h -1.968 l -1.672,6.55 v -6.55 h -2.174 z"
           style="fill:#ffffff;fill-opacity:1;fill-rule:nonzero;stroke:none"
           id="path919"
           inkscape:connector-curvature="0" /><path
           d="m 417.816,109.982 h 2.66 v -8.59 h -2.66 z"
           style="fill:#ffffff;fill-opacity:1;fill-rule:nonzero;stroke:none"
           id="path921"
           inkscape:connector-curvature="0" /><path
           d="m 421.777,109.982 h 8.069 v -2.121 h -2.707 v -6.468 h -2.655 v 6.468 h -2.707 z"
           style="fill:#ffffff;fill-opacity:1;fill-rule:nonzero;stroke:none"
           id="path923"
           inkscape:connector-curvature="0" /><path
           d="m 431.041,109.982 h 7.113 v -1.834 h -4.453 v -1.365 h 4.131 v -1.752 h -4.131 v -1.693 h 4.582 v -1.945 h -7.242 z"
           style="fill:#ffffff;fill-opacity:1;fill-rule:nonzero;stroke:none"
           id="path925"
           inkscape:connector-curvature="0" /><path
           d="m 442.402,108.037 v -4.693 h 0.651 c 0.554,0 0.949,0.06 1.183,0.183 0.235,0.123 0.418,0.338 0.551,0.645 0.133,0.307 0.199,0.805 0.199,1.492 0,0.91 -0.148,1.533 -0.445,1.869 -0.297,0.336 -0.789,0.504 -1.477,0.504 z m -2.654,1.945 h 3.943 c 0.778,0 1.406,-0.105 1.884,-0.316 0.479,-0.211 0.874,-0.514 1.187,-0.908 0.312,-0.395 0.539,-0.854 0.679,-1.377 0.141,-0.524 0.211,-1.078 0.211,-1.664 0,-0.918 -0.104,-1.631 -0.313,-2.137 -0.209,-0.506 -0.499,-0.93 -0.87,-1.271 -0.371,-0.342 -0.77,-0.569 -1.196,-0.682 -0.582,-0.156 -1.109,-0.234 -1.582,-0.234 h -3.943 z"
           style="fill:#ffffff;fill-opacity:1;fill-rule:nonzero;stroke:none"
           id="path927"
           inkscape:connector-curvature="0" /><path
           d="m 404.111,95.582 h 8.069 v -2.121 h -2.707 v -6.469 h -2.655 v 6.469 h -2.707 z"
           style="fill:#ffffff;fill-opacity:1;fill-rule:nonzero;stroke:none"
           id="path929"
           inkscape:connector-curvature="0" /><path
           d="m 413.486,95.582 h 2.66 v -8.59 h -2.66 z"
           style="fill:#ffffff;fill-opacity:1;fill-rule:nonzero;stroke:none"
           id="path931"
           inkscape:connector-curvature="0" /><path
           d="m 418.021,95.582 h 3.491 l 1.346,-5.227 1.337,5.227 h 3.489 v -8.59 h -2.174 v 6.551 l -1.675,-6.551 h -1.968 l -1.672,6.551 v -6.551 h -2.174 z"
           style="fill:#ffffff;fill-opacity:1;fill-rule:nonzero;stroke:none"
           id="path933"
           inkscape:connector-curvature="0" /><path
           d="m 429.371,95.582 h 7.113 v -1.834 h -4.453 v -1.365 h 4.131 v -1.752 h -4.131 v -1.693 h 4.582 v -1.946 h -7.242 z"
           style="fill:#ffffff;fill-opacity:1;fill-rule:nonzero;stroke:none"
           id="path935"
           inkscape:connector-curvature="0" /></g></g></g></svg>