<?xml version="1.0" encoding="UTF-8" standalone="no"?>
<!-- Created with Inkscape (http://www.inkscape.org/) -->

<svg
   xmlns:dc="http://purl.org/dc/elements/1.1/"
   xmlns:cc="http://creativecommons.org/ns#"
   xmlns:rdf="http://www.w3.org/1999/02/22-rdf-syntax-ns#"
   xmlns:svg="http://www.w3.org/2000/svg"
   xmlns="http://www.w3.org/2000/svg"
   xmlns:sodipodi="http://sodipodi.sourceforge.net/DTD/sodipodi-0.dtd"
   xmlns:inkscape="http://www.inkscape.org/namespaces/inkscape"
   version="1.1"
   id="svg83411"
   xml:space="preserve"
   width="1066.6667"
   height="800"
   viewBox="0 0 1066.6667 800"
   sodipodi:docname="sale-color-graphics-publicdomainvectors.org.svg"
   inkscape:version="0.92.4 (5da689c313, 2019-01-14)"><metadata
     id="metadata83417"><rdf:RDF><cc:Work
         rdf:about=""><dc:format>image/svg+xml</dc:format><dc:type
           rdf:resource="http://purl.org/dc/dcmitype/StillImage" /><dc:title></dc:title></cc:Work></rdf:RDF></metadata><defs
     id="defs83415"><clipPath
       clipPathUnits="userSpaceOnUse"
       id="clipPath83427"><path
         d="M 0,600 H 800 V 0 H 0 Z"
         id="path83425"
         inkscape:connector-curvature="0" /></clipPath><radialGradient
       fx="0"
       fy="0"
       cx="0"
       cy="0"
       r="1"
       gradientUnits="userSpaceOnUse"
       gradientTransform="matrix(487.4837,0,0,-487.4837,400,301.53076)"
       spreadMethod="pad"
       id="radialGradient83447"><stop
         style="stop-opacity:1;stop-color:#e6e7e8"
         offset="0"
         id="stop83441" /><stop
         style="stop-opacity:1;stop-color:#e6e7e8"
         offset="0.370597"
         id="stop83443" /><stop
         style="stop-opacity:1;stop-color:#939598"
         offset="1"
         id="stop83445" /></radialGradient><clipPath
       clipPathUnits="userSpaceOnUse"
       id="clipPath83457"><path
         d="M 19.5068,130.271 H 211.562 V 108.775 H 19.5068 Z"
         id="path83455"
         inkscape:connector-curvature="0" /></clipPath><radialGradient
       fx="0"
       fy="0"
       cx="0"
       cy="0"
       r="1"
       gradientUnits="userSpaceOnUse"
       gradientTransform="matrix(96.029434,0,0,-10.747543,115.53467,119.52344)"
       spreadMethod="pad"
       id="radialGradient83467"><stop
         style="stop-opacity:1;stop-color:#929497"
         offset="0"
         id="stop83463" /><stop
         style="stop-opacity:1;stop-color:#ffffff"
         offset="1"
         id="stop83465" /></radialGradient><clipPath
       clipPathUnits="userSpaceOnUse"
       id="clipPath83491"><path
         d="M 206.213,130.271 H 398.269 V 108.775 H 206.213 Z"
         id="path83489"
         inkscape:connector-curvature="0" /></clipPath><radialGradient
       fx="0"
       fy="0"
       cx="0"
       cy="0"
       r="1"
       gradientUnits="userSpaceOnUse"
       gradientTransform="matrix(96.029434,0,0,-10.747543,302.24072,119.52344)"
       spreadMethod="pad"
       id="radialGradient83501"><stop
         style="stop-opacity:1;stop-color:#929497"
         offset="0"
         id="stop83497" /><stop
         style="stop-opacity:1;stop-color:#ffffff"
         offset="1"
         id="stop83499" /></radialGradient><clipPath
       clipPathUnits="userSpaceOnUse"
       id="clipPath83525"><path
         d="M 392.92,130.271 H 584.976 V 108.775 H 392.92 Z"
         id="path83523"
         inkscape:connector-curvature="0" /></clipPath><radialGradient
       fx="0"
       fy="0"
       cx="0"
       cy="0"
       r="1"
       gradientUnits="userSpaceOnUse"
       gradientTransform="matrix(96.029861,0,0,-10.747589,488.94727,119.52344)"
       spreadMethod="pad"
       id="radialGradient83535"><stop
         style="stop-opacity:1;stop-color:#929497"
         offset="0"
         id="stop83531" /><stop
         style="stop-opacity:1;stop-color:#ffffff"
         offset="1"
         id="stop83533" /></radialGradient><clipPath
       clipPathUnits="userSpaceOnUse"
       id="clipPath83559"><path
         d="M 579.627,130.271 H 771.682 V 108.775 H 579.627 Z"
         id="path83557"
         inkscape:connector-curvature="0" /></clipPath><radialGradient
       fx="0"
       fy="0"
       cx="0"
       cy="0"
       r="1"
       gradientUnits="userSpaceOnUse"
       gradientTransform="matrix(96.029022,0,0,-10.747498,675.65625,119.52344)"
       spreadMethod="pad"
       id="radialGradient83569"><stop
         style="stop-opacity:1;stop-color:#929497"
         offset="0"
         id="stop83565" /><stop
         style="stop-opacity:1;stop-color:#ffffff"
         offset="1"
         id="stop83567" /></radialGradient><clipPath
       clipPathUnits="userSpaceOnUse"
       id="clipPath83593"><path
         d="M 62.4727,272.755 H 172.322 V 175.096 H 62.4727 Z"
         id="path83591"
         inkscape:connector-curvature="0" /></clipPath><clipPath
       clipPathUnits="userSpaceOnUse"
       id="clipPath83609"><path
         d="M 250.923,272.755 H 359.567 V 175.882 H 250.923 Z"
         id="path83607"
         inkscape:connector-curvature="0" /></clipPath><clipPath
       clipPathUnits="userSpaceOnUse"
       id="clipPath83623"><path
         d="M 455.082,274.876 H 555.796 V 175.781 H 455.082 Z"
         id="path83621"
         inkscape:connector-curvature="0" /></clipPath><clipPath
       clipPathUnits="userSpaceOnUse"
       id="clipPath83637"><path
         d="m 628.7,272.665 h 99.917 V 177.988 H 628.7 Z"
         id="path83635"
         inkscape:connector-curvature="0" /></clipPath><clipPath
       clipPathUnits="userSpaceOnUse"
       id="clipPath83675"><path
         d="M 74.2383,378.508 H 145.187 V 203.073 H 74.2383 Z"
         id="path83673"
         inkscape:connector-curvature="0" /></clipPath><clipPath
       clipPathUnits="userSpaceOnUse"
       id="clipPath83691"><path
         d="m 640.714,376.664 h 69.101 V 204.676 h -69.101 z"
         id="path83689"
         inkscape:connector-curvature="0" /></clipPath><clipPath
       clipPathUnits="userSpaceOnUse"
       id="clipPath83707"><path
         d="m 467.1,367.618 h 69.925 V 201.312 H 467.1 Z"
         id="path83705"
         inkscape:connector-curvature="0" /></clipPath><clipPath
       clipPathUnits="userSpaceOnUse"
       id="clipPath83723"><path
         d="m 262.937,381.78 h 69.805 V 194.806 h -69.805 z"
         id="path83721"
         inkscape:connector-curvature="0" /></clipPath></defs><sodipodi:namedview
     pagecolor="#ffffff"
     bordercolor="#666666"
     borderopacity="1"
     objecttolerance="10"
     gridtolerance="10"
     guidetolerance="10"
     inkscape:pageopacity="0"
     inkscape:pageshadow="2"
     inkscape:window-width="1920"
     inkscape:window-height="1018"
     id="namedview83413"
     showgrid="false"
     inkscape:zoom="1.0013867"
     inkscape:cx="533.33337"
     inkscape:cy="400"
     inkscape:window-x="-8"
     inkscape:window-y="-8"
     inkscape:window-maximized="1"
     inkscape:current-layer="g83419" /><g
     id="g83419"
     inkscape:groupmode="layer"
     inkscape:label="sale-color-graphics-publicdomainvectors.org"
     transform="matrix(1.3333333,0,0,-1.3333333,0,800)"><g
       id="g83421"><g
         id="g83423"
         clip-path="url(#clipPath83427)"><g
           id="g83429"><g
             id="g83431"><g
               id="g83437"><g
                 id="g83439"><path
                   d="M 800,0 H 0 v 600 h 800 z"
                   style="fill:url(#radialGradient83447);stroke:none"
                   id="path83449"
                   inkscape:connector-curvature="0" /></g></g></g></g><g
           id="g83451"><g
             id="g83453" /><g
             id="g83481"><g
               clip-path="url(#clipPath83457)"
               id="g83479"><g
                 id="g83477"><g
                   id="g83475"><g
                     id="g83473"><g
                       id="g83471"><path
                         d="m 211.562,119.52 c 0,-5.933 -42.995,-10.745 -96.027,-10.745 -53.035,0 -96.028,4.812 -96.028,10.745 0,5.94 42.993,10.751 96.028,10.751 53.032,0 96.027,-4.811 96.027,-10.751"
                         style="fill:url(#radialGradient83467);stroke:none"
                         id="path83469"
                         inkscape:connector-curvature="0" /></g></g></g></g></g></g></g><path
           d="m 113.936,272.755 c -30.403,0 -58.347,-9.281 -80.396,-24.806 V 134.103 c 0,-7.718 6.257,-13.974 13.974,-13.974 h 136.043 c 7.718,0 13.973,6.256 13.973,13.974 v 111.513 c -22.515,16.921 -51.7,27.139 -83.594,27.139"
           style="fill:#bf0000;fill-opacity:1;fill-rule:nonzero;stroke:none"
           id="path83483"
           inkscape:connector-curvature="0" /><g
           id="g83485"><g
             id="g83487" /><g
             id="g83515"><g
               clip-path="url(#clipPath83491)"
               id="g83513"><g
                 id="g83511"><g
                   id="g83509"><g
                     id="g83507"><g
                       id="g83505"><path
                         d="m 398.269,119.52 c 0,-5.933 -42.995,-10.745 -96.027,-10.745 -53.035,0 -96.029,4.812 -96.029,10.745 0,5.94 42.994,10.751 96.029,10.751 53.032,0 96.027,-4.811 96.027,-10.751"
                         style="fill:url(#radialGradient83501);stroke:none"
                         id="path83503"
                         inkscape:connector-curvature="0" /></g></g></g></g></g></g></g><path
           d="m 300.643,272.755 c -30.403,0 -58.348,-9.281 -80.397,-24.806 V 134.103 c 0,-7.718 6.257,-13.974 13.975,-13.974 h 136.043 c 7.717,0 13.973,6.256 13.973,13.974 v 111.513 c -22.515,16.921 -51.7,27.139 -83.594,27.139"
           style="fill:#8dd61d;fill-opacity:1;fill-rule:nonzero;stroke:none"
           id="path83517"
           inkscape:connector-curvature="0" /><g
           id="g83519"><g
             id="g83521" /><g
             id="g83549"><g
               clip-path="url(#clipPath83525)"
               id="g83547"><g
                 id="g83545"><g
                   id="g83543"><g
                     id="g83541"><g
                       id="g83539"><path
                         d="m 584.976,119.52 c 0,-5.933 -42.996,-10.745 -96.028,-10.745 -53.035,0 -96.028,4.812 -96.028,10.745 0,5.94 42.993,10.751 96.028,10.751 53.032,0 96.028,-4.811 96.028,-10.751"
                         style="fill:url(#radialGradient83535);stroke:none"
                         id="path83537"
                         inkscape:connector-curvature="0" /></g></g></g></g></g></g></g><path
           d="m 497.956,274.22 c -30.267,2.875 -58.964,-3.723 -82.382,-17.092 L 404.808,143.791 c -0.73,-7.684 4.908,-14.503 12.59,-15.232 l 135.434,-12.866 c 7.684,-0.729 14.502,4.907 15.231,12.59 l 10.546,111.014 c -20.814,18.974 -48.902,31.906 -80.653,34.923"
           style="fill:#056db3;fill-opacity:1;fill-rule:nonzero;stroke:none"
           id="path83551"
           inkscape:connector-curvature="0" /><g
           id="g83553"><g
             id="g83555" /><g
             id="g83583"><g
               clip-path="url(#clipPath83559)"
               id="g83581"><g
                 id="g83579"><g
                   id="g83577"><g
                     id="g83575"><g
                       id="g83573"><path
                         d="m 771.682,119.52 c 0,-5.933 -42.994,-10.745 -96.027,-10.745 -53.035,0 -96.028,4.812 -96.028,10.745 0,5.94 42.993,10.751 96.028,10.751 53.033,0 96.027,-4.811 96.027,-10.751"
                         style="fill:url(#radialGradient83569);stroke:none"
                         id="path83571"
                         inkscape:connector-curvature="0" /></g></g></g></g></g></g></g><path
           d="m 674.056,272.755 c -30.403,0 -58.347,-9.281 -80.397,-24.806 V 134.103 c 0,-7.718 6.258,-13.974 13.975,-13.974 h 136.043 c 7.718,0 13.973,6.256 13.973,13.974 v 111.513 c -22.515,16.921 -51.7,27.139 -83.594,27.139"
           style="fill:#f15300;fill-opacity:1;fill-rule:nonzero;stroke:none"
           id="path83585"
           inkscape:connector-curvature="0" /><g
           id="g83587"><g
             id="g83589" /><g
             id="g83599"><g
               clip-path="url(#clipPath83593)"
               id="g83597"><path
                 d="m 89.997,270.766 c 7.875,-4.534 17.103,-7.191 27.25,-7.191 6.621,0 14.446,-6.018 14.446,-13.845 v -19.26 c 0,-8.126 -6.621,-14.446 -14.145,-14.446 -7.824,0 -14.445,6.32 -14.445,14.446 0,13.242 -9.631,19.863 -20.465,19.863 -9.33,0 -20.165,-6.621 -20.165,-19.863 0,-31.902 26.183,-55.374 55.075,-55.374 28.892,0 54.774,23.472 54.774,55.374 v 19.26 c -0.074,3.927 -0.549,7.711 -1.369,11.331 -17.179,7.475 -36.504,11.694 -56.955,11.694 -8.205,0 -16.222,-0.697 -24.001,-1.989"
                 style="fill:#a7a9ac;fill-opacity:1;fill-rule:nonzero;stroke:none"
                 id="path83595"
                 inkscape:connector-curvature="0" /></g></g></g><path
           d="m 115.537,380.545 c 5.045,0 9.131,-4.087 9.131,-9.129 0,-5.048 -4.086,-9.134 -9.131,-9.134 -5.044,0 -9.135,4.086 -9.135,9.134 0,5.042 4.091,9.129 9.135,9.129 m -1.542,-73.15 c -7.825,0 -14.145,6.319 -14.145,14.145 v 17.154 c 0,7.826 6.621,14.145 14.446,14.145 7.223,0 14.145,-6.019 14.145,-13.543 0,-12.942 10.834,-19.261 20.164,-19.261 10.534,0 20.465,6.319 20.465,19.261 -0.903,31.299 -27.086,54.472 -54.774,54.472 -29.494,0 -55.075,-23.473 -55.075,-55.074 V 321.54 c 0,-28.592 22.873,-54.774 54.774,-54.774 6.621,0 14.446,-6.019 14.446,-13.845 V 233.66 c 0,-8.126 -6.621,-14.445 -14.145,-14.445 -7.825,0 -14.446,6.319 -14.446,14.445 0,13.242 -9.63,19.863 -20.465,19.863 -9.329,0 -20.164,-6.621 -20.164,-19.863 0,-31.901 26.183,-55.375 55.075,-55.375 28.892,0 54.774,23.474 54.774,55.375 v 19.261 c -0.602,31.901 -27.387,54.474 -55.075,54.474"
           style="fill:#414042;fill-opacity:1;fill-rule:nonzero;stroke:none"
           id="path83601"
           inkscape:connector-curvature="0" /><g
           id="g83603"><g
             id="g83605" /><g
             id="g83615"><g
               clip-path="url(#clipPath83609)"
               id="g83613"><path
                 d="m 300.643,272.755 c -17.626,0 -34.416,-3.137 -49.72,-8.784 v -68.226 c 0,-13.242 10.834,-19.863 20.163,-19.863 10.837,0 20.467,6.923 20.467,19.863 v 42.736 h 27.387 v -42.736 c 0,-12.94 10.534,-19.561 20.464,-19.561 10.233,0 20.163,6.621 20.163,19.561 v 64.456 c -17.662,8.021 -37.692,12.554 -58.924,12.554"
                 style="fill:#a7a9ac;fill-opacity:1;fill-rule:nonzero;stroke:none"
                 id="path83611"
                 inkscape:connector-curvature="0" /></g></g></g><g
           id="g83617"><g
             id="g83619" /><g
             id="g83629"><g
               clip-path="url(#clipPath83623)"
               id="g83627"><path
                 d="m 497.956,274.22 c -12.466,1.183 -24.655,0.737 -36.329,-1.104 l -6.484,-68.26 c -1.026,-10.787 11.162,-22.524 19.55,-23.321 l 59.321,-5.636 c 13.484,-1.28 20.715,8.011 21.681,18.196 0.94,9.888 -4.684,20.701 -17.867,21.954 l -40.445,3.842 5.112,53.819 c -1.505,0.19 -3.016,0.364 -4.539,0.51"
                 style="fill:#a7a9ac;fill-opacity:1;fill-rule:nonzero;stroke:none"
                 id="path83625"
                 inkscape:connector-curvature="0" /></g></g></g><g
           id="g83631"><g
             id="g83633" /><g
             id="g83643"><g
               clip-path="url(#clipPath83637)"
               id="g83641"><path
                 d="m 708.451,218.618 h -25.882 c -7.523,0 -13.24,6.019 -13.24,14.145 v 39.902 c -14.257,-0.454 -27.916,-2.955 -40.629,-7.171 v -32.731 c 0,-29.192 22.571,-54.775 53.869,-54.775 h 25.882 c 13.545,0 20.166,9.934 20.166,20.466 0,9.631 -6.621,20.164 -20.166,20.164"
                 style="fill:#a7a9ac;fill-opacity:1;fill-rule:nonzero;stroke:none"
                 id="path83639"
                 inkscape:connector-curvature="0" /></g></g></g><path
           d="m 315.937,279.405 h -27.388 v 46.047 c 0,2.407 1.505,6.32 3.01,9.028 3.309,4.516 6.921,11.135 10.533,15.952 l 12.037,-18.057 c 1.505,-1.504 1.808,-4.516 1.808,-6.923 z m -11.752,101.14 c 5.045,0 9.131,-4.087 9.131,-9.129 0,-5.048 -4.086,-9.134 -9.131,-9.134 -5.044,0 -9.135,4.086 -9.135,9.134 0,5.042 4.091,9.129 9.135,9.129 m 41.243,-23.492 -28.589,34.611 c -3.312,3.609 -8.428,5.116 -14.145,5.116 -5.719,0 -11.438,-2.71 -15.349,-7.224 -6.019,-6.321 -10.533,-12.037 -27.689,-32.503 -9.029,-11.136 -11.737,-22.573 -11.737,-34.009 V 198.749 c 0,-13.242 10.834,-19.863 20.163,-19.863 10.836,0 20.467,6.923 20.467,19.863 v 42.736 h 27.388 v -42.736 c 0,-12.94 10.532,-19.561 20.463,-19.561 10.233,0 20.163,6.621 20.163,19.561 v 124.295 c 0,11.436 -1.202,22.873 -11.135,34.009"
           style="fill:#414042;fill-opacity:1;fill-rule:nonzero;stroke:none"
           id="path83645"
           inkscape:connector-curvature="0" /><path
           d="m 487.839,365.11 c -5.022,0.477 -8.707,4.932 -8.231,9.957 0.478,5.02 4.937,8.702 9.958,8.225 5.023,-0.477 8.705,-4.933 8.228,-9.953 -0.478,-5.024 -4.933,-8.706 -9.955,-8.229 m 46.985,-146.057 -40.445,3.842 14.315,150.701 c 1.281,13.482 -7.68,20.985 -18.467,22.009 -9.289,0.882 -20.7,-4.685 -21.98,-18.167 L 452.139,207.86 c -1.026,-10.786 11.162,-22.524 19.549,-23.321 l 59.322,-5.635 c 13.484,-1.281 20.714,8.01 21.681,18.195 0.94,9.888 -4.684,20.702 -17.867,21.954"
           style="fill:#414042;fill-opacity:1;fill-rule:nonzero;stroke:none"
           id="path83647"
           inkscape:connector-curvature="0" /><path
           d="m 675.656,380.545 c 5.045,0 9.132,-4.087 9.132,-9.129 0,-5.048 -4.087,-9.134 -9.132,-9.134 -5.044,0 -9.135,4.086 -9.135,9.134 0,5.042 4.091,9.129 9.135,9.129 m 29.791,-158.923 h -25.882 c -7.523,0 -13.24,6.019 -13.24,14.145 v 40.027 h 36.113 c 13.243,0 19.864,9.933 19.864,20.163 0,9.933 -6.621,20.466 -19.864,20.466 h -36.113 v 34.911 h 39.122 c 13.545,0 20.166,9.631 20.166,19.863 0,9.931 -6.621,20.467 -20.166,20.467 h -58.685 c -11.436,0 -21.067,-6.622 -21.067,-21.069 V 235.767 c 0,-29.192 22.572,-54.775 53.87,-54.775 h 25.882 c 13.545,0 20.166,9.934 20.166,20.466 0,9.631 -6.621,20.164 -20.166,20.164"
           style="fill:#414042;fill-opacity:1;fill-rule:nonzero;stroke:none"
           id="path83649"
           inkscape:connector-curvature="0" /><path
           d="m 297.566,396.06 c 0.802,3.563 3.46,7.341 7.074,7.341 3.316,0 6.657,-5.035 7.311,-8.345 0.801,-0.348 1.565,-0.746 2.279,-1.211 0.029,-0.007 0.058,-0.011 0.086,-0.018 0.124,4.137 -4.416,11.828 -9.676,11.828 -5.483,0 -8.965,-5.776 -9.495,-10.441 0.791,0.333 1.6,0.617 2.421,0.846"
           style="fill:#414042;fill-opacity:1;fill-rule:nonzero;stroke:none"
           id="path83651"
           inkscape:connector-curvature="0" /><path
           d="m 329.48,510.133 c -0.153,0 -0.313,-0.007 -0.473,-0.019 -6.659,-0.533 -15.426,-11.479 -15.426,-17.522 0,-31.219 -4.832,-47.385 -7.427,-56.071 -0.985,-3.292 -1.696,-5.67 -1.696,-7.335 l -0.032,-47.345 3.319,42.831 0.02,0.081 c 0.076,0.282 1.946,7.015 10.916,15.985 8.784,8.781 13.191,13.189 18.019,28.549 3.91,12.447 1.766,21.631 0.347,27.709 -0.341,1.469 -0.639,2.738 -0.826,3.902 -0.686,4.26 -2.414,9.235 -6.741,9.235 m -23.315,-129.703 -1.739,0.135 v -0.07 l -1.842,0.002 0.032,48.69 c 0,1.933 0.705,4.292 1.772,7.862 2.57,8.595 7.352,24.593 7.352,55.543 0,6.94 9.347,18.736 17.12,19.357 3.354,0.272 7.67,-1.379 9.18,-10.758 0.176,-1.1 0.465,-2.341 0.801,-3.776 1.464,-6.273 3.678,-15.752 -0.385,-28.681 -4.963,-15.791 -9.477,-20.305 -18.474,-29.298 -8.092,-8.094 -10.19,-14.349 -10.417,-15.086 z"
           style="fill:#414042;fill-opacity:1;fill-rule:nonzero;stroke:none"
           id="path83653"
           inkscape:connector-curvature="0" /><path
           d="m 483.902,395.231 c 0.984,3.639 4.117,7.551 7.906,7.191 3.309,-0.315 6.167,-5.67 6.492,-9.025 0.78,-0.376 1.527,-0.801 2.244,-1.268 0.408,4.149 -3.349,12.045 -8.523,12.537 -5.701,0.542 -9.833,-5.399 -10.558,-10.105 0.804,0.272 1.619,0.497 2.439,0.67"
           style="fill:#414042;fill-opacity:1;fill-rule:nonzero;stroke:none"
           id="path83655"
           inkscape:connector-curvature="0" /><path
           d="m 514.828,512.879 c -0.153,0 -0.311,-0.006 -0.473,-0.018 -6.659,-0.533 -15.425,-11.48 -15.425,-17.523 0,-31.219 -4.833,-47.385 -7.427,-56.07 -0.985,-3.292 -1.696,-5.67 -1.696,-7.335 l -0.032,-47.346 3.319,42.831 0.019,0.082 c 0.076,0.282 1.947,7.014 10.916,15.984 8.784,8.781 13.192,13.189 18.019,28.549 3.911,12.448 1.767,21.632 0.348,27.71 -0.341,1.469 -0.639,2.738 -0.827,3.902 -0.685,4.26 -2.414,9.234 -6.741,9.234 m -23.314,-129.703 -1.739,0.136 v -0.071 l -1.842,0.002 0.032,48.691 c 0,1.933 0.705,4.291 1.772,7.861 2.569,8.595 7.352,24.593 7.352,55.543 0,6.941 9.348,18.736 17.12,19.358 3.354,0.271 7.67,-1.38 9.18,-10.758 0.176,-1.101 0.465,-2.342 0.801,-3.776 1.464,-6.273 3.677,-15.753 -0.385,-28.681 -4.963,-15.792 -9.478,-20.306 -18.474,-29.299 -8.092,-8.094 -10.19,-14.349 -10.417,-15.086 z"
           style="fill:#414042;fill-opacity:1;fill-rule:nonzero;stroke:none"
           id="path83657"
           inkscape:connector-curvature="0" /><path
           d="m 700.919,510.133 c -0.153,0 -0.313,-0.007 -0.474,-0.019 -6.658,-0.533 -15.425,-11.479 -15.425,-17.522 0,-31.219 -4.832,-47.385 -7.427,-56.071 -0.986,-3.292 -1.697,-5.67 -1.697,-7.335 l -0.031,-47.345 3.319,42.831 0.019,0.081 c 0.077,0.282 1.946,7.015 10.917,15.985 8.783,8.781 13.191,13.189 18.019,28.549 3.91,12.447 1.766,21.631 0.346,27.709 -0.34,1.469 -0.638,2.738 -0.826,3.902 -0.685,4.26 -2.413,9.235 -6.74,9.235 m -23.315,-129.703 -1.739,0.135 v -0.07 l -1.843,0.002 0.033,48.69 c 0,1.933 0.705,4.292 1.772,7.862 2.569,8.595 7.352,24.593 7.352,55.543 0,6.94 9.347,18.736 17.12,19.357 3.354,0.272 7.67,-1.379 9.18,-10.758 0.176,-1.1 0.465,-2.341 0.801,-3.776 1.464,-6.273 3.678,-15.752 -0.385,-28.681 -4.963,-15.791 -9.478,-20.305 -18.474,-29.298 -8.092,-8.094 -10.19,-14.349 -10.417,-15.086 z"
           style="fill:#414042;fill-opacity:1;fill-rule:nonzero;stroke:none"
           id="path83659"
           inkscape:connector-curvature="0" /><path
           d="m 140.832,510.133 c -0.153,0 -0.312,-0.007 -0.473,-0.019 -6.659,-0.533 -15.426,-11.479 -15.426,-17.522 0,-31.219 -4.832,-47.385 -7.427,-56.071 -0.985,-3.292 -1.696,-5.67 -1.696,-7.335 l -0.031,-47.345 3.318,42.831 0.02,0.081 c 0.076,0.282 1.946,7.015 10.916,15.985 8.784,8.781 13.192,13.189 18.019,28.549 3.911,12.447 1.766,21.631 0.347,27.709 -0.341,1.469 -0.639,2.738 -0.826,3.902 -0.686,4.26 -2.414,9.235 -6.741,9.235 m -23.315,-129.703 -1.738,0.135 v -0.07 l -1.843,0.002 0.032,48.69 c 0,1.933 0.706,4.292 1.773,7.862 2.569,8.595 7.351,24.593 7.351,55.543 0,6.94 9.348,18.736 17.12,19.357 3.354,0.272 7.67,-1.379 9.18,-10.758 0.176,-1.1 0.466,-2.341 0.801,-3.776 1.464,-6.273 3.678,-15.752 -0.385,-28.681 -4.963,-15.791 -9.477,-20.305 -18.474,-29.298 -8.092,-8.094 -10.189,-14.349 -10.417,-15.086 z"
           style="fill:#414042;fill-opacity:1;fill-rule:nonzero;stroke:none"
           id="path83661"
           inkscape:connector-curvature="0" /><path
           d="m 108.711,393.484 c 0.409,3.855 3.255,8.544 7.281,8.544 3.583,0 7.201,-5.881 7.421,-9.109 0.755,-0.138 1.507,-0.293 2.255,-0.464 0.124,4.136 -4.416,11.828 -9.676,11.828 -5.735,0 -9.291,-6.325 -9.557,-11.082 0.755,0.108 1.513,0.205 2.276,0.283"
           style="fill:#414042;fill-opacity:1;fill-rule:nonzero;stroke:none"
           id="path83663"
           inkscape:connector-curvature="0" /><path
           d="m 685.757,391.664 -0.002,0.791 c 0.124,4.136 -4.416,11.828 -9.677,11.828 -5.735,0 -9.29,-6.325 -9.557,-11.082 v -1.537 h 2.277 v 1.82 c 0.408,3.855 3.255,8.544 7.28,8.544 3.583,0 7.202,-5.881 7.421,-9.109 v -1.255 z"
           style="fill:#414042;fill-opacity:1;fill-rule:nonzero;stroke:none"
           id="path83665"
           inkscape:connector-curvature="0" /><path
           d="m 114.013,292.395 c -16.071,0 -29.145,13.074 -29.145,29.145 v 17.154 c 0,13.76 9.686,25.314 22.661,28.355 -0.707,1.297 -1.109,2.784 -1.109,4.367 0,2.864 1.322,5.418 3.388,7.092 -19.984,-2.247 -35.57,-19.241 -35.57,-39.814 V 321.54 c 0,-19.128 15.207,-39.774 39.775,-39.774 13.927,0 29.446,-11.846 29.446,-28.845 v -19.262 c 0,-16.235 -13.074,-29.444 -29.146,-29.444 -16.236,0 -29.445,13.209 -29.445,29.444 0,1.937 0,4.864 -5.465,4.864 -0.862,0 -5.165,-0.234 -5.165,-4.864 0,-24.938 20.802,-40.374 40.075,-40.374 21.932,0 39.775,18.111 39.775,40.374 v 19.112 c -0.534,24.479 -21.195,39.624 -40.075,39.624 m 7.989,85.486 c 16.124,-3.637 31.392,-18.304 32.085,-38.802 -0.011,-1.525 -0.255,-4.044 -5.464,-4.044 -1.211,0 -5.164,0.307 -5.164,4.261 0,12.454 -8.65,23.346 -20.263,27.124 0.94,1.436 1.491,3.15 1.491,4.996 0,2.526 -1.027,4.813 -2.685,6.465"
           style="fill:#bf0000;fill-opacity:1;fill-rule:nonzero;stroke:none"
           id="path83667"
           inkscape:connector-curvature="0" /><g
           id="g83669"><g
             id="g83671" /><g
             id="g83681"><g
               clip-path="url(#clipPath83675)"
               id="g83679"><path
                 d="m 86.801,292.557 c -7.338,7.64 -11.421,17.941 -11.421,27.841 v 17.154 c 0,19.66 14.236,36.041 32.937,39.419 0.438,0.567 0.934,1.086 1.491,1.537 -19.984,-2.247 -35.57,-19.241 -35.57,-39.814 V 321.54 c 0,-10.403 4.507,-21.248 12.563,-28.983 m 28.353,-1.304 c 9.831,0 20.138,-4.113 27.842,-11.506 -7.808,8.109 -18.658,12.648 -28.983,12.648 -7.745,0 -14.789,3.043 -20.014,7.988 5.315,-5.615 12.831,-9.13 21.155,-9.13 m 0.301,-88.18 c 16.071,0 29.146,13.209 29.146,29.445 v 19.261 c 0,8.215 -3.63,15.221 -8.948,20.274 4.688,-4.945 7.806,-11.519 7.806,-19.132 v -19.262 c 0,-16.235 -13.074,-29.444 -29.146,-29.444 -7.828,0 -14.947,3.077 -20.227,8.077 5.371,-5.671 12.961,-9.219 21.369,-9.219 M 75.38,232.518 c 0,4.629 4.303,4.864 5.165,4.864 1.779,0 2.971,-0.314 3.781,-0.798 -0.626,1.087 -1.977,1.939 -4.923,1.939 -0.862,0 -5.165,-0.234 -5.165,-4.864 0,-12.076 4.886,-21.915 12.105,-28.86 -6.588,6.866 -10.963,16.291 -10.963,27.719 m 60.117,126.122 c 4.901,-5.13 7.962,-11.954 7.962,-19.344 0,-1.74 0.767,-2.774 1.728,-3.386 -0.358,0.573 -0.586,1.303 -0.586,2.245 0,7.949 -3.535,15.253 -9.104,20.485 m -10.81,12.776 c 0,2.526 -1.027,4.813 -2.685,6.465 7.526,-1.697 14.864,-5.799 20.621,-11.774 -5.57,5.357 -12.443,9.046 -19.48,10.633 1.658,-1.653 2.685,-3.939 2.685,-6.466 0,-1.601 -0.434,-3.091 -1.157,-4.399 -0.489,0.189 -0.975,0.382 -1.475,0.545 0.94,1.436 1.491,3.15 1.491,4.996"
                 style="fill:#bcbec0;fill-opacity:1;fill-rule:nonzero;stroke:none"
                 id="path83677"
                 inkscape:connector-curvature="0" /></g></g></g><path
           d="m 705.466,206.622 h -25.883 c -15.836,0 -28.24,12.802 -28.24,29.145 v 55.027 h 51.113 c 1.455,0 4.863,0 4.863,5.163 0,2.494 -0.843,5.466 -4.863,5.466 h -51.113 v 64.911 h 16.74 c -0.974,1.453 -1.544,3.2 -1.544,5.082 0,1.955 0.62,3.762 1.668,5.248 h -21.428 c -5.189,0 -6.065,-1.872 -6.065,-6.069 V 235.767 c 0,-19.552 14.539,-39.775 38.869,-39.775 h 25.883 c 1.805,0 5.165,0 5.165,5.466 0,2.355 -0.897,5.164 -5.165,5.164 m -20.66,164.794 c 0,-1.882 -0.57,-3.629 -1.543,-5.082 h 22.203 c 2.613,0 5.165,0.375 5.165,4.864 0,3.627 -1.737,5.466 -5.165,5.466 H 683.14 c 1.047,-1.486 1.666,-3.293 1.666,-5.248"
           style="fill:#f15300;fill-opacity:1;fill-rule:nonzero;stroke:none"
           id="path83683"
           inkscape:connector-curvature="0" /><g
           id="g83685"><g
             id="g83687" /><g
             id="g83697"><g
               clip-path="url(#clipPath83691)"
               id="g83695"><path
                 d="m 683.263,366.334 h 1.793 c 0.571,1.193 0.891,2.529 0.891,3.94 0,1.955 -0.62,3.763 -1.666,5.248 h 22.326 c 1.274,0 2.313,-0.256 3.118,-0.761 -0.839,1.253 -2.25,1.903 -4.259,1.903 H 683.14 c 1.047,-1.486 1.666,-3.293 1.666,-5.248 0,-1.882 -0.57,-3.629 -1.543,-5.082 M 680.725,205.48 h 25.882 c 1.41,0 2.445,-0.309 3.208,-0.804 -0.728,1.124 -2.044,1.946 -4.349,1.946 h -25.883 c -7.437,0 -14.116,2.824 -19.11,7.512 5.094,-5.365 12.231,-8.654 20.252,-8.654 m -28.241,94.802 h 51.114 c 1.216,0 2.138,-0.276 2.838,-0.724 -0.707,1.089 -1.928,1.865 -3.98,1.865 h -49.972 z m 0.62,-93.878 c -7.992,7.682 -12.39,18.619 -12.39,29.363 v 134.828 c 0,4.197 0.876,6.069 6.065,6.069 h 21.428 c -0.256,-0.362 -0.484,-0.744 -0.686,-1.142 h -19.6 c -5.19,0 -6.066,-1.872 -6.066,-6.068 V 234.625 c 0,-10.221 3.98,-20.618 11.249,-28.221"
                 style="fill:#bcbec0;fill-opacity:1;fill-rule:nonzero;stroke:none"
                 id="path83693"
                 inkscape:connector-curvature="0" /></g></g></g><path
           d="m 533.424,204.12 -55.379,5.26 14.888,156.724 c -1.51,-0.787 -3.254,-1.167 -5.076,-0.994 -2.134,0.203 -4.023,1.129 -5.458,2.508 L 467.1,206.555 c 0.226,-2.028 4.053,-6.266 6.399,-7.118 l 58.948,-5.6 c 0.36,-0.034 0.706,-0.052 1.032,-0.052 h 0.018 c 1.256,0 3.832,0.023 4.279,4.733 0.146,1.529 -0.198,3.084 -0.896,4.057 -0.256,0.357 -0.936,1.306 -3.456,1.545"
           style="fill:#056db3;fill-opacity:1;fill-rule:nonzero;stroke:none"
           id="path83699"
           inkscape:connector-curvature="0" /><g
           id="g83701"><g
             id="g83703" /><g
             id="g83713"><g
               clip-path="url(#clipPath83707)"
               id="g83711"><path
                 d="m 468.241,205.413 15.3,161.063 c 1.435,-1.378 3.323,-2.305 5.457,-2.508 1.32,-0.125 2.596,0.048 3.774,0.448 l 0.161,1.688 c -1.51,-0.787 -3.254,-1.167 -5.076,-0.994 -2.134,0.203 -4.023,1.129 -5.458,2.508 L 467.1,206.555 c 0.148,-1.326 1.836,-3.592 3.642,-5.243 -1.322,1.446 -2.385,3.063 -2.501,4.101 m 11.042,3.849 54.141,-5.142 c 2.52,-0.239 3.2,-1.188 3.456,-1.545 0.056,-0.077 0.094,-0.179 0.145,-0.264 -0.518,0.289 -1.283,0.556 -2.46,0.668 l -55.378,5.259 z"
                 style="fill:#bcbec0;fill-opacity:1;fill-rule:nonzero;stroke:none"
                 id="path83709"
                 inkscape:connector-curvature="0" /></g></g></g><path
           d="m 334.063,347.28 -20.791,25.17 c 0.038,-0.34 0.062,-0.684 0.062,-1.034 0,-3.621 -2.108,-6.738 -5.159,-8.216 l 17.944,-21.741 c 3.21,-3.999 4.835,-9.372 4.835,-16.007 v -61.047 h -57.387 v 61.047 c 0,6.767 3.424,13.661 4.896,16.312 4.082,7.338 13.592,17.193 19.458,23.031 -1.754,1.664 -2.853,4.011 -2.853,6.621 0,5.042 4.091,9.129 9.135,9.129 0.949,0 1.863,-0.145 2.723,-0.413 l -1.008,1.221 c -0.427,0.166 -1.468,0.427 -3.206,0.427 -1.34,0 -2.953,-0.823 -4.014,-2.048 l -0.23,-0.265 -0.242,-0.255 c -4.155,-4.362 -7.68,-8.589 -16.199,-18.803 -2.94,-3.526 -6.456,-7.741 -10.771,-12.889 -5.753,-7.129 -8.319,-14.683 -8.319,-24.476 V 198.749 c 0,-4.629 4.3,-4.863 5.163,-4.863 5.467,0 5.467,3.285 5.467,4.863 v 57.736 h 57.387 v -57.736 c 0,-4.117 3.821,-4.561 5.464,-4.561 5.163,0 5.163,3.314 5.163,4.561 v 124.295 c 0,10.252 -1.168,17.117 -7.329,24.024 z"
           style="fill:#8dd61d;fill-opacity:1;fill-rule:nonzero;stroke:none"
           id="path83715"
           inkscape:connector-curvature="0" /><g
           id="g83717"><g
             id="g83719" /><g
             id="g83729"><g
               clip-path="url(#clipPath83723)"
               id="g83727"><path
                 d="m 264.078,197.607 v 124.296 c 0,9.793 2.567,17.346 8.319,24.475 4.316,5.149 7.832,9.364 10.772,12.889 5.781,6.932 9.26,11.103 12.199,14.434 0.874,3.382 3.631,6.005 7.092,6.674 0.475,0.166 0.949,0.263 1.394,0.263 1.447,0 2.404,-0.18 2.933,-0.337 l -0.869,1.052 c -0.427,0.166 -1.468,0.427 -3.206,0.427 -1.34,0 -2.953,-0.823 -4.014,-2.048 l -0.23,-0.265 -0.242,-0.255 c -4.155,-4.362 -7.68,-8.589 -16.199,-18.803 -2.94,-3.526 -6.456,-7.741 -10.771,-12.889 -5.753,-7.129 -8.319,-14.683 -8.319,-24.476 V 198.749 c 0,-2.071 0.862,-3.259 1.891,-3.943 -0.451,0.684 -0.75,1.59 -0.75,2.801 m 66.876,127.845 v -61.047 h -56.245 v -1.141 h 57.387 v 61.046 c 0,6.635 -1.625,12.009 -4.835,16.007 l -17.945,21.741 c 3.051,1.478 5.16,4.595 5.16,8.216 0,0.263 -0.024,0.519 -0.047,0.775 l -1.157,1.401 c 0.038,-0.34 0.062,-0.684 0.062,-1.034 0,-3.621 -2.108,-6.738 -5.159,-8.216 l 17.944,-21.741 c 3.21,-3.999 4.835,-9.372 4.835,-16.007 m 1.788,-130.327 c -1.006,0.658 -1.788,1.765 -1.788,3.624 v 56.595 h 1.142 v -57.737 c 0,-1.048 0.249,-1.856 0.646,-2.482"
                 style="fill:#bcbec0;fill-opacity:1;fill-rule:nonzero;stroke:none"
                 id="path83725"
                 inkscape:connector-curvature="0" /></g></g></g></g></g></g></svg>